<?xml version="1.0" standalone="no"?>
<!DOCTYPE svg PUBLIC "-//W3C//DTD SVG 20010904//EN"
 "http://www.w3.org/TR/2001/REC-SVG-20010904/DTD/svg10.dtd">
<svg version="1.0" xmlns="http://www.w3.org/2000/svg"
 width="360.000000pt" height="360.000000pt" viewBox="0 0 360.000000 360.000000"
 preserveAspectRatio="xMidYMid meet">
<metadata>
Created by potrace 1.15, written by Peter Selinger 2001-2017
</metadata>
<g transform="translate(0.000000,360.000000) scale(0.100000,-0.100000)"
fill="#000000" stroke="none">
<path d="M1793 3260 c-5 -4 -44 -12 -88 -19 -44 -7 -84 -16 -90 -20 -5 -4 -36
-14 -68 -21 -32 -7 -60 -17 -63 -22 -3 -4 -15 -8 -27 -8 -20 0 -53 -14 -195
-83 -23 -11 -50 -29 -59 -39 -9 -10 -24 -18 -33 -18 -9 0 -27 -10 -40 -22 -39
-37 -113 -87 -120 -83 -4 3 -31 -20 -59 -50 -29 -30 -56 -55 -60 -55 -4 0 -19
-12 -33 -27 -48 -51 -81 -74 -102 -71 -24 3 -76 -49 -76 -76 0 -9 -4 -16 -10
-16 -5 0 -10 -8 -10 -17 0 -10 -9 -29 -20 -43 -17 -22 -20 -23 -20 -6 0 17 -3
16 -25 -8 -13 -14 -22 -33 -19 -41 4 -9 -3 -19 -19 -26 -34 -16 -90 -125 -86
-170 2 -19 -6 -66 -18 -104 -29 -96 -51 -199 -59 -267 -3 -32 -10 -58 -16 -58
-5 0 -8 6 -7 13 4 32 -2 77 -10 77 -11 0 -30 -80 -23 -94 3 -5 4 -38 3 -73 -1
-35 2 -70 8 -77 7 -8 7 -24 0 -51 -12 -41 2 -115 22 -115 5 0 7 -27 4 -67 -5
-80 16 -193 53 -273 14 -30 24 -59 23 -63 -1 -5 3 -6 8 -3 14 9 116 -155 175
-281 6 -13 15 -23 20 -23 12 0 33 -28 55 -75 11 -22 33 -53 50 -69 17 -17 31
-33 31 -37 0 -15 99 -109 115 -109 9 0 14 -4 11 -9 -4 -5 18 -26 46 -47 29
-21 74 -55 99 -76 25 -21 49 -38 54 -38 5 0 16 -6 24 -14 18 -16 229 -126 242
-126 16 0 -42 50 -66 56 -13 3 -26 12 -29 20 -3 8 -14 14 -25 14 -11 0 -21 4
-23 8 -1 5 -33 25 -69 45 -36 20 -74 46 -84 57 -10 11 -22 20 -28 20 -17 0
-67 41 -62 51 3 5 -7 17 -23 26 -33 21 -138 114 -134 120 5 6 -50 74 -56 69
-3 -3 -12 7 -21 23 -9 15 -29 48 -44 72 -58 90 -140 235 -152 270 -7 20 -26
63 -41 95 -16 33 -27 69 -25 82 1 13 -2 28 -7 35 -5 7 -12 32 -15 57 -8 57
-33 199 -40 225 -3 11 -7 26 -9 34 -1 7 3 16 10 18 6 3 12 -2 12 -11 0 -9 5
-16 10 -16 6 0 10 -24 10 -54 0 -30 4 -56 8 -58 10 -4 52 -132 52 -158 0 -10
20 -80 45 -156 25 -75 45 -142 45 -149 0 -7 9 -15 19 -18 12 -3 24 -20 32 -46
7 -22 18 -41 26 -41 7 0 19 -11 25 -25 12 -26 42 -36 32 -10 -13 32 56 -17 81
-58 14 -23 25 -38 25 -33 0 5 22 -15 50 -45 85 -92 112 -117 127 -112 6 2 19
-6 30 -19 10 -13 34 -31 53 -42 19 -10 40 -24 45 -30 14 -16 48 -30 135 -56
41 -12 90 -32 110 -44 41 -25 138 -68 195 -87 49 -15 169 -24 162 -12 -4 6 58
8 151 5 178 -5 291 7 420 44 488 141 854 560 922 1056 27 190 7 417 -51 592
-34 103 -126 277 -193 367 -203 270 -518 456 -850 504 -34 5 -45 9 -35 15 9 6
0 11 -31 17 -56 9 -82 9 -193 0 -49 -4 -94 -4 -100 0 -22 13 -183 -14 -212
-36 -5 -5 -19 -11 -30 -13 -11 -3 -28 -9 -37 -13 -13 -5 -18 -2 -18 8 0 9 9
19 20 22 11 4 20 15 20 26 0 23 41 43 110 54 25 4 50 11 55 15 6 4 22 8 38 9
55 3 62 4 72 12 6 4 38 8 71 7 33 0 70 4 82 11 12 7 51 10 89 9 53 -2 67 0 65
11 -2 10 7 12 38 9 22 -2 40 0 40 4 0 5 -15 8 -32 9 -30 1 -56 3 -111 7 -10 1
-16 6 -12 11 3 6 -53 10 -145 10 -89 0 -152 -4 -156 -10 -3 -6 -16 -9 -27 -8
-12 1 -39 -5 -61 -14 -48 -21 -70 -22 -63 -2 5 11 0 13 -23 8 -51 -10 -33 13
23 30 47 14 135 27 282 42 28 2 72 7 99 10 27 3 54 1 60 -3 6 -5 28 -9 49 -11
28 -2 37 1 37 13 0 9 -6 16 -14 16 -8 0 -17 9 -21 20 -4 12 -15 20 -28 20 -12
0 -77 1 -144 3 -68 2 -126 0 -130 -3z m287 -440 c145 -27 353 -116 451 -191
142 -109 269 -258 339 -397 90 -179 123 -314 123 -507 1 -273 -77 -496 -250
-713 -309 -387 -872 -519 -1328 -313 -251 114 -478 352 -575 603 -63 162 -75
228 -74 418 0 192 13 262 75 420 146 366 491 634 891 690 75 11 271 5 348 -10z"/>
<path d="M1802 2395 c-58 -18 -108 -58 -134 -108 -16 -32 -22 -66 -26 -144
l-5 -103 -58 0 -59 0 0 -120 0 -120 60 0 60 0 0 -305 0 -305 120 0 120 0 0
305 0 305 89 0 89 0 6 53 c3 28 8 82 12 120 l6 67 -96 0 -96 0 0 68 c0 40 5
73 12 80 7 7 44 12 95 12 l83 0 0 105 0 105 -117 -1 c-69 0 -136 -6 -161 -14z"/>
<path d="M341 1384 c-2 -40 59 -235 113 -358 32 -75 72 -148 100 -183 25 -33
46 -62 46 -66 0 -16 102 -147 114 -147 13 0 -4 54 -23 71 -11 11 -21 28 -21
37 0 10 -14 37 -31 60 -17 23 -27 47 -23 53 4 7 3 9 -4 5 -6 -3 -13 3 -17 14
-3 11 -10 20 -14 20 -4 0 -5 16 -3 35 3 22 -1 42 -10 53 -8 9 -25 39 -38 65
-12 26 -25 46 -28 43 -3 -3 -11 -1 -19 5 -9 9 -13 8 -13 0 0 -6 -4 -11 -10
-11 -5 0 -10 6 -10 13 0 8 -13 40 -28 73 -16 32 -36 84 -44 114 -9 30 -20 71
-26 90 -6 22 -10 28 -11 14z"/>
</g>
</svg>
